<svg width="501" height="491" viewBox="0 0 501 491" fill="none" xmlns="http://www.w3.org/2000/svg">
<path d="M363.102 455.721C511.822 439.7 480.542 379.473 468.127 314.149C456.905 255.102 478.702 191.416 472.362 131.647L470.989 118.712C465.68 68.6616 424.656 29.9659 374.38 27.5866L242.374 21.3393C210.714 19.841 179.746 30.9297 156.232 52.1844L132.914 73.2623C115.963 88.5856 101.93 106.856 91.4983 127.187L36.5422 234.289C35.4489 236.419 34.34 238.473 33.3235 240.642C25.448 257.443 -5.98963 338.512 77.7326 416C144.316 477.625 242.007 473.272 293.329 465.49C316.446 461.985 339.856 458.226 363.102 455.721Z" stroke="url(#paint0_linear_27_10)" stroke-width="41"/>
<defs>
<linearGradient id="paint0_linear_27_10" x1="264.733" y1="19" x2="264.646" y2="654.543" gradientUnits="userSpaceOnUse">
<stop stop-color="#4ADE16"/>
<stop offset="1" stop-color="#32C4D8"/>
</linearGradient>
</defs>
</svg>
