<svg width="418" height="465" viewBox="0 0 418 465" fill="none" xmlns="http://www.w3.org/2000/svg">
<path d="M299.195 432.961C407.48 414.719 395.499 357.975 391.74 297.573C388.027 237.938 403.471 175.166 394.01 116.169L393.241 111.377C385.634 63.9376 345.951 28.239 297.974 25.6739L208.624 20.8968C174.181 19.0554 140.612 32.1236 116.479 56.7676L105.779 67.6948C90.3758 83.4246 77.8393 101.725 68.7349 121.77L28.8796 209.519C24.1119 220.016 20.1912 231.013 20.934 242.518C22.405 265.299 32.8813 310.313 82.4965 375.384C124.965 431.082 174.905 443.55 209.963 443.988C239.789 444.36 269.781 437.916 299.195 432.961Z" stroke="url(#paint0_linear_27_9)" stroke-width="41"/>
<defs>
<linearGradient id="paint0_linear_27_9" x1="214.733" y1="18" x2="214.64" y2="620.987" gradientUnits="userSpaceOnUse">
<stop stop-color="#7A16DE"/>
<stop offset="0.836926"/>
</linearGradient>
</defs>
</svg>
